<?xml version="1.0" standalone="no"?>
<!DOCTYPE svg PUBLIC "-//W3C//DTD SVG 20010904//EN"
 "http://www.w3.org/TR/2001/REC-SVG-20010904/DTD/svg10.dtd">
<svg version="1.0" xmlns="http://www.w3.org/2000/svg"
 width="1080.000000pt" height="1080.000000pt" viewBox="0 0 1080.000000 1080.000000"
 preserveAspectRatio="xMidYMid meet">

<g transform="translate(0.000000,1080.000000) scale(0.100000,-0.100000)"
fill="#000000" stroke="none">
<path d="M0 5870 c0 -2711 2 -4930 5 -4930 3 0 54 18 114 40 60 22 115 40 122
40 8 1 46 12 84 26 39 14 108 37 155 50 47 14 99 30 115 35 53 18 139 41 180
49 22 5 90 24 150 43 61 19 126 38 145 41 19 4 55 15 80 25 25 11 92 34 150
51 58 18 114 36 125 41 11 4 56 20 100 34 44 15 89 30 100 35 11 4 45 16 75
25 30 10 91 30 135 46 44 16 104 34 134 39 79 15 134 32 152 47 10 8 27 11 41
8 13 -3 70 3 125 14 56 12 113 21 128 21 14 0 34 4 44 10 10 5 43 13 72 18 91
16 181 42 244 72 33 16 71 32 85 36 28 8 115 62 145 91 27 25 96 67 93 57 -1
-5 2 -24 6 -42 5 -21 3 -44 -4 -63 -18 -43 -3 -49 29 -10 15 18 47 43 72 55
50 24 82 72 58 87 -8 5 -38 9 -68 9 -49 0 -57 3 -88 36 -19 20 -32 41 -30 48
3 8 56 11 173 11 165 0 170 1 215 27 25 14 65 48 90 74 24 27 58 62 76 80 44
44 93 123 93 151 0 13 7 26 15 29 8 4 15 18 15 33 0 14 7 40 16 56 41 78 57
156 72 342 7 85 6 83 63 123 4 3 11 32 14 65 8 66 18 100 33 109 6 3 8 15 5
25 -3 11 3 45 12 77 10 34 14 76 12 104 -3 27 -1 52 4 57 12 12 32 346 25 405
-4 27 0 75 8 115 8 37 18 86 21 108 6 38 8 39 21 20 9 -12 24 -19 37 -17 12 1
29 -2 37 -8 12 -8 13 -13 2 -30 -24 -39 -5 -67 60 -92 74 -28 89 -47 68 -86
-9 -15 -25 -31 -37 -37 -31 -13 -43 -83 -17 -102 13 -10 14 -13 3 -13 -9 -1
-7 -7 9 -19 12 -11 22 -26 22 -34 0 -9 9 -19 20 -22 11 -3 20 -12 20 -20 0 -7
7 -26 15 -41 8 -16 15 -42 15 -59 l0 -30 84 0 c46 0 88 -4 93 -8 16 -16 -31
-38 -74 -35 -45 3 -48 2 -33 -22 5 -9 5 -19 -2 -27 -7 -9 -6 -14 6 -19 9 -3
16 -12 16 -20 0 -7 12 -20 27 -28 16 -8 26 -18 23 -23 -3 -4 5 -12 18 -18 12
-5 22 -15 22 -21 0 -7 7 -14 15 -18 8 -3 15 -12 15 -19 0 -8 12 -17 28 -20 31
-6 62 -65 40 -78 -6 -4 8 -12 33 -18 98 -25 117 -32 123 -46 9 -26 25 -16 28
17 2 25 9 35 30 42 24 8 32 6 58 -19 34 -33 36 -39 15 -79 -9 -16 -13 -31 -11
-34 3 -2 36 -6 73 -8 62 -3 200 -18 280 -30 40 -6 47 -26 41 -129 -3 -58 -8
-79 -23 -95 -23 -22 -130 -47 -257 -60 -47 -4 -97 -14 -110 -21 -12 -7 -39
-13 -58 -13 -33 -1 -35 -3 -32 -31 4 -35 16 -45 57 -45 35 0 213 -35 222 -43
13 -14 -9 -22 -51 -19 -31 3 -46 9 -46 18 0 19 -19 18 -42 -2 -10 -10 -41 -19
-70 -21 -60 -6 -130 -32 -125 -47 2 -6 20 -12 40 -14 29 -3 37 -7 37 -23 0
-10 -5 -19 -11 -19 -6 0 -9 7 -5 15 3 9 0 15 -9 15 -26 0 -25 -18 2 -39 24
-17 26 -22 13 -31 -13 -8 -8 -14 11 -12 10 2 49 -106 49 -133 0 -12 7 -28 15
-35 17 -14 20 -40 5 -40 -5 0 -10 -6 -10 -12 1 -15 84 -68 106 -68 8 0 27 -9
42 -20 26 -19 45 -22 257 -50 44 -6 105 -15 135 -20 52 -9 274 -23 555 -35
146 -6 287 11 308 38 7 9 30 20 53 26 23 6 55 24 72 41 18 16 38 30 46 30 7 0
19 7 26 15 7 8 22 15 34 15 12 0 27 5 33 11 13 13 113 20 113 9 0 -4 11 -11
25 -14 23 -6 26 -11 24 -51 -2 -40 12 -75 30 -75 16 0 190 -121 213 -148 l24
-29 16 22 c17 22 144 66 246 85 30 5 57 12 60 14 8 4 261 64 432 101 174 38
250 55 365 85 232 61 237 61 262 45 17 -12 23 -25 23 -53 0 -21 -6 -46 -12
-55 -21 -26 -103 -53 -268 -86 -85 -18 -200 -42 -255 -55 -55 -13 -152 -35
-215 -49 -63 -14 -173 -39 -245 -55 -71 -16 -159 -35 -195 -42 -82 -16 -96
-26 -74 -51 10 -11 23 -19 31 -19 7 0 13 -4 13 -8 0 -5 23 -32 51 -60 54 -55
63 -58 179 -52 52 2 87 -15 106 -52 18 -34 121 -142 164 -171 24 -16 24 -17 5
-31 -25 -18 -31 -69 -20 -164 5 -43 9 -51 20 -42 7 6 25 8 39 4 35 -8 56 11
56 51 0 36 17 55 49 58 24 1 24 2 11 28 -11 19 -2 26 16 11 5 -5 56 -21 114
-36 58 -16 119 -34 135 -41 17 -7 41 -16 55 -20 14 -4 53 -20 87 -36 34 -16
73 -31 86 -35 17 -4 23 -11 20 -23 -3 -14 2 -16 35 -13 22 2 43 -1 46 -7 4 -6
25 -11 46 -11 21 0 41 -4 44 -9 4 -5 24 -12 45 -16 22 -4 45 -13 52 -21 7 -9
25 -14 40 -12 15 1 36 -5 46 -14 10 -9 34 -19 53 -21 19 -2 58 -16 87 -30 29
-15 60 -27 70 -27 10 0 31 -7 47 -15 15 -8 39 -15 52 -15 14 0 27 -7 30 -15 4
-8 18 -15 34 -15 15 0 61 -14 101 -31 41 -17 91 -35 112 -40 131 -32 210 -55
236 -68 11 -6 28 -11 38 -11 10 0 70 -20 133 -45 63 -25 124 -45 135 -45 11 0
34 -9 50 -20 17 -11 38 -20 48 -20 25 0 298 -142 375 -196 89 -61 151 -114
157 -135 4 -10 18 -24 33 -31 25 -12 27 -19 30 -81 l3 -67 154 0 155 0 0 5400
0 5400 -1863 0 c-1188 0 -1875 -4 -1896 -10 -19 -5 -37 -13 -40 -18 -5 -8
-176 -75 -291 -115 -122 -42 -115 -39 -235 -92 -33 -15 -94 -37 -136 -50 -42
-13 -89 -30 -105 -38 -16 -8 -83 -33 -149 -55 -173 -59 -343 -120 -379 -137
-17 -8 -96 -37 -176 -64 -208 -71 -297 -104 -362 -135 -69 -32 -87 -52 -37
-42 126 26 215 36 242 26 17 -5 55 -11 86 -11 31 -1 49 -3 40 -6 -23 -6 -39
-45 -27 -67 8 -14 20 -17 56 -14 l47 3 3 -37 c2 -26 -1 -38 -10 -39 -7 0 -28
-2 -45 -5 -24 -3 -33 0 -33 10 0 9 -15 15 -42 18 -35 4 -47 0 -67 -19 -51 -49
-97 -38 -86 21 4 24 2 27 -13 21 -9 -3 -38 -10 -64 -15 -52 -10 -102 -33 -114
-52 -5 -8 -2 -9 9 -5 12 4 16 1 15 -11 -3 -39 3 -59 27 -84 31 -33 31 -49 3
-75 -27 -25 -75 -21 -106 7 -17 16 -22 17 -43 4 -13 -7 -39 -20 -56 -29 -18
-8 -33 -22 -33 -30 0 -8 -18 -29 -40 -46 -30 -24 -40 -40 -40 -61 0 -33 0 -33
-49 -8 -46 23 -56 44 -36 73 9 12 15 43 15 73 0 38 5 55 20 69 25 23 26 35 1
28 -11 -3 -27 -1 -36 4 -15 9 -12 13 16 38 l34 28 -44 -8 c-23 -4 -80 -20
-124 -36 -89 -31 -112 -35 -122 -18 -9 13 22 37 57 45 15 4 33 13 40 21 10 13
7 15 -22 12 -19 -2 -39 -6 -45 -10 -5 -3 -35 -12 -65 -19 -30 -7 -75 -20 -100
-30 -25 -9 -63 -23 -85 -29 -22 -7 -62 -21 -90 -32 -27 -10 -104 -37 -170 -60
-66 -22 -129 -45 -140 -49 -19 -9 -89 -33 -410 -145 -82 -29 -197 -69 -255
-90 -189 -67 -258 -84 -332 -85 -88 0 -95 7 -40 44 26 18 60 36 75 40 16 4 46
18 68 31 21 14 47 25 58 25 11 0 23 5 26 10 3 6 2 10 -3 10 -16 0 -156 -38
-182 -49 -41 -18 -190 -51 -228 -51 -38 0 -188 45 -262 79 -50 23 -89 29 -54
8 91 -53 151 -110 131 -123 -6 -5 -19 -9 -27 -8 -55 3 -125 21 -194 50 -210
85 -282 116 -383 164 -59 29 -146 71 -193 93 -47 22 -121 61 -166 87 -44 26
-90 51 -102 54 -12 4 -29 21 -38 37 -8 16 -26 34 -40 39 -34 13 -98 12 -128
-2 -21 -9 -29 -8 -43 4 -10 8 -40 23 -68 33 -31 11 -65 34 -90 61 -24 25 -58
50 -84 59 -25 8 -65 25 -90 37 -25 11 -57 25 -71 31 -14 5 -32 13 -40 18 -8 5
-25 13 -37 18 -12 6 -25 17 -30 26 -5 8 -25 24 -44 34 -18 10 -39 28 -45 40
-6 12 -14 22 -18 22 -3 -1 -16 -1 -28 -1 -19 0 -20 2 -8 10 20 13 70 13 70 0
0 -5 9 -10 20 -10 11 0 28 -4 38 -10 9 -5 71 -32 137 -61 130 -56 223 -99 324
-148 36 -17 68 -31 73 -31 4 0 38 -14 75 -31 135 -62 297 -128 302 -124 2 3 0
9 -5 14 -14 14 -102 61 -113 61 -6 0 -39 14 -73 30 -34 17 -67 30 -74 30 -6 0
-17 6 -23 14 -7 8 -23 17 -36 20 -34 9 -268 120 -342 163 -55 32 -60 38 -46
51 13 13 20 14 47 3 17 -7 46 -16 64 -21 19 -5 41 -15 51 -24 10 -9 24 -16 32
-16 8 0 48 -13 89 -29 41 -16 108 -39 148 -51 40 -12 75 -26 78 -31 3 -5 18
-9 34 -9 16 0 44 -9 62 -20 18 -11 41 -20 50 -20 9 0 18 -4 20 -10 2 -5 23
-14 48 -19 97 -21 147 -37 172 -53 23 -15 46 -24 89 -32 82 -16 126 -35 147
-61 20 -25 83 -48 197 -70 44 -9 98 -23 120 -32 75 -29 426 -56 440 -34 5 9
10 9 21 0 10 -8 22 -8 46 1 18 6 80 18 138 25 58 8 121 21 140 28 63 25 107
37 192 52 85 15 155 35 310 86 48 16 94 29 103 29 9 0 29 6 43 13 75 38 134
58 337 113 55 15 107 33 115 40 17 14 83 33 143 41 21 3 63 18 94 34 31 16 63
29 71 29 8 0 51 13 96 30 191 69 253 90 290 95 22 3 45 10 51 15 6 5 36 15 66
21 30 6 59 15 64 19 6 4 44 17 85 29 41 13 89 29 105 36 17 8 50 17 75 21 25
3 79 15 120 26 41 11 95 25 120 30 25 6 52 16 61 24 8 8 30 17 47 20 18 4 35
11 38 15 3 5 20 9 37 9 18 0 41 6 52 13 11 8 61 24 110 36 50 12 99 26 110 31
11 6 37 11 57 13 21 3 43 9 50 14 7 6 60 25 118 42 58 18 118 39 133 47 16 8
39 14 52 14 13 0 27 5 30 10 4 7 -1073 10 -3224 10 l-3231 0 0 -4930z m6132
3152 c21 -30 39 -36 113 -42 59 -5 75 -11 97 -33 15 -15 33 -27 40 -27 7 0 31
-20 54 -45 35 -39 46 -45 81 -45 30 0 53 -9 96 -40 44 -31 64 -40 98 -40 24 0
55 -8 73 -19 17 -11 48 -22 68 -26 21 -4 42 -13 49 -21 6 -8 17 -14 24 -14 20
0 75 -50 75 -67 0 -10 6 -14 20 -10 21 5 55 -25 144 -132 24 -29 55 -60 68
-69 49 -33 138 -115 138 -126 0 -7 11 -23 25 -36 14 -13 25 -27 25 -31 0 -5
11 -32 24 -61 13 -29 28 -65 34 -80 7 -16 18 -28 26 -28 21 0 41 -56 27 -74
-9 -11 -9 -16 1 -23 7 -4 13 -19 14 -33 0 -14 4 -40 8 -57 6 -28 5 -33 -10
-33 -16 0 -43 -26 -44 -42 0 -5 7 -8 15 -8 14 0 20 -23 28 -112 3 -27 1 -48
-3 -48 -4 0 -4 -17 1 -37 5 -21 9 -57 9 -80 0 -39 -2 -43 -25 -43 -22 0 -25
-4 -25 -34 0 -45 10 -72 20 -55 5 6 11 -28 15 -77 4 -49 14 -107 22 -129 8
-22 18 -53 22 -70 8 -32 -5 -85 -21 -85 -16 0 -52 21 -73 44 -28 29 -82 54
-130 59 -58 6 -126 25 -240 67 -55 21 -116 40 -135 43 -19 3 -73 13 -120 21
-78 15 -93 15 -175 0 -49 -9 -101 -22 -115 -29 -36 -19 -158 -65 -173 -65 -6
0 -25 -18 -41 -40 -19 -25 -38 -40 -52 -40 -12 0 -27 -7 -34 -15 -7 -8 -20
-15 -29 -15 -9 0 -27 -13 -41 -30 -14 -16 -32 -30 -40 -30 -8 0 -24 -7 -35
-16 -17 -13 -20 -25 -17 -87 1 -40 4 -126 5 -192 2 -101 6 -128 25 -167 13
-27 27 -48 32 -48 6 0 10 -7 10 -16 0 -11 5 -14 16 -10 9 4 22 2 29 -4 9 -7
16 -6 25 5 13 16 76 20 98 6 8 -4 13 -14 12 -22 -7 -44 21 -69 76 -69 14 0 39
-7 55 -16 32 -16 105 -16 103 1 -1 6 -5 20 -8 32 -8 25 26 63 56 63 19 0 58
-74 58 -110 0 -23 44 -55 86 -64 18 -4 40 -16 50 -27 10 -11 30 -19 50 -19 42
0 90 -18 78 -30 -12 -11 -81 -15 -120 -6 -17 4 -67 8 -111 10 -54 2 -88 8
-104 19 -13 10 -30 17 -37 17 -8 0 -28 6 -45 13 -52 23 -102 37 -126 37 -20 0
-22 -2 -10 -16 7 -9 38 -33 69 -54 30 -21 65 -46 77 -56 46 -40 60 -51 103
-80 61 -42 156 -90 210 -108 76 -25 240 -44 310 -37 58 5 70 11 107 44 23 21
46 51 52 65 11 26 14 27 79 24 37 -2 71 -8 77 -13 5 -5 19 -9 32 -9 16 0 31
-13 50 -42 16 -24 31 -45 36 -46 4 -2 5 -8 1 -13 -3 -5 -1 -9 5 -9 15 0 25
-108 12 -133 -6 -12 -13 -40 -16 -62 -2 -22 -9 -74 -15 -115 -13 -93 -13 -95
-2 -150 13 -64 29 -100 58 -129 22 -22 25 -31 19 -67 -3 -26 -2 -45 5 -49 5
-3 10 1 10 9 0 19 44 49 65 44 20 -4 46 -66 52 -125 8 -73 23 -72 98 3 62 63
94 120 95 167 0 23 38 22 69 -2 23 -18 24 -21 17 -102 -5 -46 -11 -124 -15
-174 -6 -68 -14 -103 -34 -142 -20 -39 -27 -67 -27 -111 0 -37 -9 -83 -24
-125 -13 -36 -29 -88 -36 -116 -15 -65 -55 -107 -110 -116 -22 -4 -48 -14 -57
-23 -22 -22 -90 -52 -117 -52 -24 0 -102 34 -126 56 -23 19 -127 19 -194 0
-32 -10 -64 -15 -71 -12 -10 4 -14 74 -18 313 -2 169 -8 318 -12 331 -11 33
-42 28 -50 -8 -4 -16 -17 -38 -29 -48 -13 -9 -29 -28 -35 -41 -12 -22 -17 -23
-73 -17 -33 3 -71 3 -85 0 -24 -6 -25 -10 -21 -65 l4 -58 -31 16 c-68 36 -65
35 -86 9 -19 -25 -47 -37 -34 -16 3 6 2 10 -4 10 -5 0 -13 -10 -16 -22 -16
-57 -30 -80 -54 -90 -20 -9 -22 -12 -9 -15 17 -4 45 -60 34 -70 -3 -3 -6 1 -6
10 0 24 -27 21 -35 -3 -12 -37 -107 -17 -150 31 -27 29 -76 49 -124 49 -21 0
-52 7 -67 15 -32 17 -84 20 -84 6 0 -6 -17 -11 -37 -13 -44 -4 -55 -28 -27
-59 24 -26 9 -37 -19 -13 -30 27 -88 64 -169 109 -38 20 -68 40 -68 45 0 5
-37 27 -82 50 -101 51 -98 51 -388 26 -25 -2 -64 -9 -87 -15 -24 -6 -108 -10
-200 -8 -127 2 -157 5 -155 16 9 44 -82 55 -190 21 -81 -25 -122 -25 -165 1
-31 20 -40 20 -135 11 -79 -7 -104 -13 -115 -28 -17 -24 -17 -95 2 -130 8 -16
15 -26 15 -21 0 4 18 -2 40 -13 52 -26 60 -25 105 10 41 32 80 35 140 10 31
-14 115 -15 262 -6 81 5 236 -15 275 -35 10 -5 48 -9 85 -9 38 0 93 -7 123
-15 103 -26 293 -100 322 -124 7 -6 26 -22 42 -35 32 -26 25 -35 -28 -40 -20
-1 -45 -11 -57 -22 -11 -10 -28 -19 -37 -19 -12 0 -18 -10 -20 -32 -2 -23 -10
-34 -25 -39 -12 -4 -39 -17 -59 -30 -28 -18 -37 -31 -40 -56 -4 -44 -22 -38
-28 9 -4 33 -9 38 -34 41 -26 3 -28 1 -22 -20 11 -39 19 -88 13 -88 -2 0 -17
7 -33 15 -32 16 -44 7 -44 -32 0 -14 -6 -23 -15 -23 -8 0 -15 7 -15 15 0 19
-56 20 -67 1 -11 -18 -53 -31 -53 -16 0 7 -13 11 -32 9 -18 -1 -52 -1 -75 0
-38 1 -43 4 -43 24 0 38 24 62 67 64 64 3 123 15 129 25 3 5 -4 20 -16 33 -16
17 -36 24 -76 27 -41 4 -61 11 -82 31 -15 15 -50 34 -77 43 -28 8 -59 19 -70
24 -11 4 -33 13 -48 19 -44 17 -137 26 -137 12 0 -28 26 -91 36 -87 6 2 17 -1
23 -7 6 -6 34 -21 63 -33 29 -13 46 -23 37 -24 -10 0 -16 -8 -15 -17 0 -11
-11 -23 -31 -32 -26 -11 -33 -21 -33 -42 0 -31 14 -39 73 -39 23 -1 56 -7 72
-15 l30 -13 -26 -1 c-30 -1 -39 -8 -33 -26 6 -15 131 -19 184 -7 26 7 39 5 48
-4 19 -21 15 -24 -33 -24 -33 0 -47 -5 -52 -16 -7 -19 9 -30 55 -39 38 -7 62
-26 62 -48 0 -29 56 -50 165 -63 33 -4 62 -10 65 -14 3 -5 81 -12 173 -18 93
-5 172 -13 175 -18 4 -5 24 -17 45 -26 22 -11 37 -25 37 -36 0 -20 -28 -47
-50 -47 -8 0 -15 -7 -15 -15 0 -21 -74 -60 -115 -60 -54 0 -67 -13 -40 -40 21
-21 21 -22 3 -35 -39 -30 -109 -10 -99 28 5 22 4 22 -167 25 -95 1 -228 5
-297 8 -145 7 -286 8 -350 1 -25 -2 -48 0 -51 5 -3 4 -19 3 -37 -3 -27 -9 -34
-8 -53 10 -13 11 -31 23 -41 27 -10 3 -18 10 -18 15 0 5 -6 9 -14 9 -28 0 -95
53 -106 84 -7 17 -17 42 -23 56 -6 14 -11 27 -12 30 -7 31 -20 47 -45 58 -16
8 -30 20 -30 28 0 8 -10 14 -25 14 -14 0 -25 -5 -25 -12 0 -22 -33 -48 -62
-48 -21 0 -28 5 -28 20 0 11 9 25 20 32 25 16 26 44 1 51 -11 3 -26 21 -34 40
-19 44 -28 50 -107 62 -75 12 -100 9 -100 -11 0 -17 -11 -18 -32 -1 -21 16
-31 67 -29 155 2 59 -1 72 -13 72 -9 0 -16 -4 -16 -10 0 -14 -67 -13 -76 1 -4
7 4 20 17 30 21 16 22 21 11 39 -7 11 -10 31 -6 45 3 14 1 31 -5 39 -23 27
-60 106 -66 140 -4 21 -20 47 -41 66 -19 17 -34 35 -34 40 0 5 -7 16 -16 25
-9 8 -22 38 -29 65 -12 44 -11 52 2 66 14 13 13 17 -7 34 -30 26 -74 25 -98 0
-18 -19 -19 -56 -26 -808 -4 -469 -11 -791 -17 -797 -5 -5 -9 36 -10 110 -1
277 -26 689 -44 732 -11 26 -22 34 -72 47 -32 9 -73 23 -91 31 -18 9 -37 13
-42 10 -4 -3 -15 -2 -24 1 -18 7 -22 49 -6 59 6 3 10 26 10 49 0 24 7 60 15
79 8 20 15 49 15 64 0 15 11 46 24 69 19 34 38 103 50 186 1 9 16 39 33 65 17
26 38 64 47 84 9 20 26 46 36 57 11 12 20 28 20 35 0 8 11 22 25 31 14 9 25
21 25 26 0 5 -21 21 -47 34 -83 43 -142 141 -151 252 -8 104 25 321 61 392 6
13 10 38 9 55 -3 36 15 168 28 212 5 17 15 62 21 100 21 137 26 160 39 202 14
47 30 48 30 3 0 -16 5 -32 11 -36 15 -9 95 71 110 110 7 17 23 46 36 63 20 28
23 40 18 85 -9 73 -52 175 -77 181 -18 5 -18 7 -3 36 8 17 23 31 31 31 32 0
75 -36 95 -80 11 -25 32 -68 45 -96 21 -43 24 -60 18 -105 -4 -30 -12 -61 -19
-69 -6 -8 -12 -25 -13 -37 0 -12 -13 -49 -28 -83 -22 -46 -33 -60 -50 -60 -11
0 -28 -8 -36 -17 -23 -27 -39 -108 -32 -163 7 -50 30 -74 41 -42 9 27 45 62
63 62 25 0 60 38 60 66 0 14 6 46 14 72 8 26 22 74 31 107 24 85 44 141 75
210 15 33 34 87 44 120 9 33 26 79 37 103 10 23 19 53 19 65 1 12 7 33 15 47
8 14 14 36 15 48 0 13 6 38 14 55 15 34 72 216 88 282 5 22 13 47 18 56 5 9
14 36 20 60 7 24 18 58 25 74 32 71 48 111 52 130 2 10 8 22 14 25 5 4 22 31
38 61 15 30 37 70 49 89 12 19 22 41 22 49 0 13 21 60 96 217 28 57 34 82 33
125 -2 43 4 64 25 102 15 26 32 47 36 47 5 0 14 17 19 38 13 46 40 74 311 326
57 53 104 86 122 86 8 0 23 9 33 20 10 11 22 20 26 20 4 0 20 11 34 24 14 14
44 27 66 31 21 4 41 11 45 16 3 5 14 9 24 9 10 0 31 11 47 24 24 20 48 26 138
36 61 7 146 13 190 15 117 4 218 16 234 29 16 13 117 32 178 35 30 1 46 -4 55
-17z m-3995 -1880 c2 -9 21 -26 41 -37 55 -29 88 -99 96 -201 l6 -81 -30 -13
c-16 -7 -38 -26 -49 -43 -11 -17 -29 -32 -43 -33 -12 -2 -39 -6 -59 -10 -22
-3 -54 0 -82 10 -25 8 -59 13 -76 11 -21 -2 -31 1 -31 10 0 7 -10 22 -23 32
-12 10 -35 34 -50 54 -23 31 -27 45 -27 105 0 75 16 148 30 139 5 -3 21 8 37
25 31 32 57 37 138 26 35 -4 57 -2 75 8 34 19 41 19 47 -2z m-183 -421 c4 -5
-3 -7 -14 -4 -23 6 -26 13 -6 13 8 0 17 -4 20 -9z m76 -27 c0 -7 -10 -9 -25
-6 -14 2 -25 8 -25 13 0 5 11 8 25 7 14 -1 25 -8 25 -14z m4952 -95 c77 -22
108 -39 159 -84 53 -47 130 -155 111 -155 -5 0 -17 9 -27 20 -10 11 -29 20
-43 20 -14 0 -33 6 -41 14 -26 23 -161 66 -210 66 -25 1 -57 7 -71 15 -14 8
-43 14 -65 15 -80 1 -145 12 -145 26 0 18 50 43 125 65 82 23 126 23 207 -2z
m1019 -917 c-6 -2 -11 -11 -11 -19 0 -14 -3 -13 -20 2 l-20 18 22 24 22 24 9
-23 c5 -14 4 -24 -2 -26z m-6075 -613 c-3 -18 -17 -43 -31 -57 -14 -13 -25
-28 -25 -32 0 -4 -13 -10 -30 -13 -21 -5 -30 -12 -30 -26 0 -29 -15 -33 -42
-11 -19 14 -34 18 -61 13 -49 -8 -95 20 -75 44 23 28 227 111 277 112 21 1 23
-2 17 -30z m5254 -205 c0 -8 -4 -14 -10 -14 -5 0 -10 9 -10 21 0 11 5 17 10
14 6 -3 10 -13 10 -21z m-332 -244 c9 -15 23 -20 60 -20 44 0 72 -12 72 -32 0
-4 -17 -19 -39 -32 -30 -19 -39 -31 -39 -53 0 -52 13 -63 77 -63 63 0 71 7 71
56 0 28 19 38 67 38 52 0 58 -13 55 -122 -4 -119 -8 -135 -33 -129 -22 6 -49
-17 -49 -42 0 -26 -21 -41 -57 -41 -27 0 -33 -4 -33 -21 0 -17 5 -20 24 -17
25 5 55 -6 45 -16 -3 -3 -41 -8 -85 -11 -43 -3 -94 -8 -112 -12 -38 -6 -92 13
-92 34 0 7 -8 16 -17 20 -26 9 -63 44 -63 60 0 7 -4 13 -8 13 -4 0 -8 8 -9 18
-3 31 -25 78 -30 63 -4 -8 -15 6 -28 35 -21 45 -22 50 -7 62 9 6 26 12 40 12
20 0 23 4 20 32 -2 20 -11 36 -23 43 -51 27 -57 32 -51 51 5 18 12 19 85 13
43 -4 89 -10 102 -14 21 -7 22 -6 11 7 -10 13 -8 17 18 28 24 10 28 15 19 26
-9 11 -15 11 -25 3 -17 -14 -19 2 -2 19 16 16 21 15 36 -8z m-488 -86 c0 -17
-22 -14 -28 4 -2 7 3 12 12 12 9 0 16 -7 16 -16z m25 -56 c35 -16 31 -35 -10
-42 -63 -12 -96 11 -57 40 21 17 34 17 67 2z m51 -85 c8 -3 14 -15 14 -28 0
-12 6 -28 14 -34 26 -22 26 -50 -1 -71 -14 -11 -21 -20 -14 -20 6 0 11 -13 11
-28 0 -23 -6 -30 -33 -40 -18 -7 -45 -12 -60 -12 -15 0 -27 -4 -27 -10 0 -5
-8 -10 -18 -10 -33 0 -53 108 -37 205 11 70 9 68 76 61 33 -4 67 -10 75 -13z
m-354 1 c16 -10 -17 -22 -59 -23 -21 -1 -33 4 -33 12 0 14 73 23 92 11z
m-2325 -121 c-9 -9 -19 -14 -22 -11 -3 3 2 13 11 22 9 9 19 14 22 11 3 -3 -2
-13 -11 -22z m2407 6 c-3 -5 -10 -7 -15 -3 -5 3 -7 10 -3 15 3 5 10 7 15 3 5
-3 7 -10 3 -15z m76 -138 c0 -13 -54 -21 -143 -21 -50 0 -77 4 -71 9 16 17
214 28 214 12z m2373 -75 c79 -88 102 -150 91 -252 -6 -59 -7 -61 -54 -92 -27
-18 -54 -32 -59 -32 -6 0 -11 -7 -11 -16 0 -20 -57 -74 -79 -74 -33 0 -47 20
-50 66 -1 7 -20 21 -43 32 -74 34 -98 81 -98 186 0 50 5 69 28 102 85 127 114
153 173 154 32 0 43 -8 102 -74z m-1862 -147 c56 -24 66 -44 17 -34 -38 8 -78
31 -78 45 0 14 5 13 61 -11z m-2286 -239 c-3 -5 -15 -10 -26 -10 -10 0 -19 5
-19 10 0 6 12 10 26 10 14 0 23 -4 19 -10z m649 -27 c31 -9 34 -13 61 -80 18
-44 34 -53 98 -53 25 0 37 -4 37 -14 0 -17 -44 -28 -80 -21 -54 11 -60 1 -60
-93 0 -48 -4 -93 -9 -100 -12 -19 -119 -21 -131 -2 -6 8 -10 56 -10 106 0 87
-1 91 -27 110 -48 35 -111 54 -177 54 l-64 0 -7 40 c-4 21 -4 44 0 50 5 8 90
8 153 0 1 0 4 1 7 3 2 1 11 -7 18 -18 13 -16 17 -17 31 -6 9 7 16 19 16 27 0
23 61 22 144 -3z m680 12 c3 -8 1 -15 -4 -15 -6 0 -10 7 -10 15 0 8 2 15 4 15
2 0 6 -7 10 -15z m2789 -421 c81 -57 122 -104 145 -167 54 -143 0 -285 -121
-315 -130 -33 -245 0 -289 81 -22 40 -23 161 -4 234 15 57 52 123 68 123 6 0
23 11 40 25 16 14 35 25 43 25 7 0 15 7 19 15 9 25 43 17 99 -21z m-3908 -13
c19 -8 19 -8 -2 -19 -21 -12 -53 -16 -53 -8 0 2 3 11 6 20 7 17 18 19 49 7z
m59 -143 c-4 -6 -10 -5 -15 3 -14 22 -10 33 6 19 8 -7 12 -17 9 -22z m1181
-177 c107 -7 170 -15 215 -30 72 -24 80 -25 80 -11 0 6 -7 10 -15 10 -8 0 -15
5 -15 10 0 13 437 13 550 0 47 -5 152 -14 233 -19 88 -6 154 -14 162 -21 8 -7
15 -25 15 -40 0 -24 -6 -31 -42 -44 -24 -8 -101 -20 -171 -27 -144 -13 -136
-8 -157 -108 -19 -86 -20 -91 -31 -91 -5 0 -12 8 -15 18 -5 15 -18 45 -58 132
-11 23 -18 25 -85 28 -53 2 -78 -1 -90 -12 -23 -20 -89 -46 -117 -46 -17 0
-28 8 -36 28 -15 37 -15 37 -17 81 -1 29 -6 40 -18 43 -43 9 -231 -40 -306
-79 -16 -8 -32 -11 -35 -7 -4 4 -1 9 6 11 7 3 25 16 40 29 l27 23 -28 1 c-35
0 -91 -23 -136 -57 -38 -29 -20 -28 -293 -24 -188 3 -188 3 -195 124 l-6 87
194 0 c107 -1 262 -5 344 -9z m344 -158 c-11 -88 -16 -96 -63 -91 -26 3 -52
15 -69 31 l-28 25 23 16 c12 9 32 16 43 16 12 0 32 11 45 25 13 14 31 25 40
25 13 0 15 -8 9 -47z m2836 -468 c30 -29 33 -74 8 -103 -20 -23 -239 -88 -400
-118 -120 -23 -143 -15 -143 49 0 29 6 49 18 60 22 20 134 65 181 73 20 3 72
16 116 29 139 41 188 43 220 10z m-8085 -127 c58 -6 111 -15 118 -21 6 -5 12
-27 12 -50 l0 -40 -132 7 c-156 8 -470 34 -513 42 -37 8 -55 21 -55 43 0 41
15 43 245 37 121 -4 267 -11 325 -18z m110 -397 c0 -13 -66 -31 -115 -31 -65
0 -47 19 26 29 82 10 89 10 89 2z"/>
<path d="M4655 7613 c-16 -9 -44 -27 -61 -40 -17 -12 -34 -23 -38 -23 -18 0
-125 -74 -163 -113 -46 -46 -63 -82 -69 -139 -5 -51 15 -54 78 -13 29 19 63
35 75 35 12 0 25 5 28 10 8 13 132 13 140 0 6 -9 27 -20 118 -59 26 -11 47
-25 47 -32 0 -16 -31 -38 -52 -39 -10 0 -18 -7 -18 -15 0 -8 -8 -15 -19 -15
-33 0 -222 -98 -229 -119 -2 -6 -14 -11 -27 -11 -30 0 -69 -71 -61 -112 4 -20
-1 -35 -20 -58 -14 -16 -28 -48 -31 -69 -6 -43 -17 -35 107 -72 25 -7 54 -19
65 -26 11 -7 36 -13 57 -13 20 0 40 -4 43 -10 9 -15 45 -12 51 4 3 8 -2 28
-10 45 -9 16 -16 32 -16 35 0 7 96 56 109 56 5 0 12 -18 16 -40 4 -22 11 -42
16 -46 5 -3 9 -14 9 -24 0 -28 20 -68 39 -76 21 -8 267 -23 290 -17 10 2 25
20 35 39 19 42 42 52 64 30 13 -13 14 -20 5 -35 -16 -26 -5 -37 64 -60 106
-36 128 -28 141 50 7 40 11 44 42 51 83 17 89 20 121 69 17 27 33 67 36 89 4
32 15 48 45 74 40 35 77 119 57 131 -5 4 -9 19 -9 34 0 26 -11 70 -30 116 -4
11 -13 40 -20 64 -11 43 -71 112 -78 91 -2 -5 -12 -10 -23 -10 -14 0 -19 7
-19 28 0 15 -6 38 -13 51 -20 39 -170 141 -208 141 -10 0 -42 10 -71 22 -47
19 -75 21 -263 24 -115 2 -235 5 -265 8 -39 3 -64 0 -85 -11z m278 -495 c56
-22 25 -38 -71 -38 -83 0 -97 8 -76 38 14 20 21 22 67 16 29 -3 64 -10 80 -16z
m114 -102 c26 -13 62 -36 78 -50 17 -14 33 -26 37 -26 3 0 11 -13 17 -30 9
-28 8 -30 -13 -30 -13 0 -41 6 -62 13 -37 13 -147 20 -319 20 -44 0 -114 -8
-155 -17 -41 -9 -94 -21 -118 -26 -76 -18 -81 2 -10 39 35 19 76 44 91 57 16
13 41 27 55 30 15 4 33 12 40 17 19 15 81 23 204 26 96 2 112 -1 155 -23z"/>
<path d="M5097 6534 c-4 -4 -44 -8 -89 -10 -46 -1 -139 -8 -207 -14 -68 -6
-139 -8 -157 -5 -39 6 -40 3 -17 -35 30 -52 162 -90 316 -90 113 0 287 39 372
84 l40 21 -72 5 c-53 4 -79 11 -102 28 -29 21 -71 29 -84 16z"/>
<path d="M3731 5751 c-30 -30 -28 -53 7 -49 20 2 28 9 30 27 5 36 -12 47 -37
22z"/>
<path d="M5192 5548 c-7 -7 -12 -22 -12 -34 0 -18 11 -26 62 -43 34 -12 84
-21 110 -21 45 0 48 2 48 26 0 15 -12 38 -29 55 -27 26 -36 29 -98 29 -40 0
-74 -5 -81 -12z"/>
<path d="M6120 5233 c-42 -3 -266 -27 -355 -38 -61 -8 -146 -24 -188 -37 -45
-14 -32 -28 26 -28 21 0 53 -6 72 -14 19 -8 37 -11 40 -6 12 19 119 39 240 45
72 3 157 12 190 20 57 14 91 38 79 56 -5 9 -13 9 -104 2z"/>
<path d="M5530 5068 c-34 -57 -22 -80 43 -80 60 0 67 6 67 52 0 43 -18 60 -64
60 -19 0 -32 -9 -46 -32z"/>
<path d="M4192 4518 c-7 -7 -12 -18 -12 -26 0 -10 -7 -12 -26 -8 -24 6 -25 6
-11 -9 16 -15 13 -45 -4 -45 -5 0 -9 -8 -9 -17 1 -16 3 -15 19 4 17 21 31 21
31 1 0 -5 -4 -6 -10 -3 -5 3 -10 -1 -10 -9 0 -10 6 -13 15 -10 8 4 15 10 15
15 0 5 11 9 24 9 37 0 51 64 20 94 -19 19 -26 20 -42 4z"/>
<path d="M4080 4321 c0 -7 4 -9 10 -6 5 3 18 1 29 -5 13 -7 22 -7 26 0 3 5 0
10 -7 10 -7 0 -23 3 -35 6 -14 4 -23 2 -23 -5z"/>
<path d="M4170 4320 c0 -5 5 -10 10 -10 6 0 10 5 10 10 0 6 -4 10 -10 10 -5 0
-10 -4 -10 -10z"/>
<path d="M5425 4290 c-3 -5 3 -10 14 -10 12 0 21 5 21 10 0 6 -6 10 -14 10 -8
0 -18 -4 -21 -10z"/>
<path d="M6910 4192 c0 -5 7 -17 15 -28 14 -18 14 -18 15 9 0 17 -5 27 -15 27
-8 0 -15 -4 -15 -8z"/>
<path d="M6560 10759 c-52 -22 -108 -44 -125 -48 -16 -5 -77 -27 -135 -51
-100 -40 -185 -71 -350 -126 -79 -27 -176 -66 -223 -90 -16 -8 -35 -14 -43
-14 -7 0 -33 -9 -56 -19 -24 -11 -83 -32 -132 -47 -49 -15 -110 -37 -135 -49
-25 -12 -64 -28 -86 -34 -55 -17 -178 -63 -190 -71 -5 -4 -23 -11 -40 -15 -16
-4 -24 -10 -18 -12 12 -4 69 13 128 37 11 5 44 14 72 19 29 6 72 19 95 30 24
11 61 25 83 31 22 7 51 19 65 26 14 8 106 40 205 73 236 78 547 186 571 199
11 5 60 24 109 40 236 80 410 143 419 152 7 7 -12 10 -54 9 -52 0 -84 -8 -160
-40z"/>
<path d="M4938 10143 c7 -3 16 -2 19 1 4 3 -2 6 -13 5 -11 0 -14 -3 -6 -6z"/>
<path d="M4835 10118 c-16 -6 -46 -17 -65 -26 -55 -25 -12 -26 53 -2 80 30 90
54 12 28z"/>
<path d="M4615 10030 c-8 -13 5 -13 25 0 13 8 13 10 -2 10 -9 0 -20 -4 -23
-10z"/>
<path d="M4418 9953 c6 -2 18 -2 25 0 6 3 1 5 -13 5 -14 0 -19 -2 -12 -5z"/>
<path d="M4810 9945 c-32 -12 -33 -14 -9 -14 14 -1 34 6 45 14 23 18 10 18
-36 0z"/>
<path d="M4315 9929 l-40 -20 45 7 c65 9 108 34 58 34 -13 -1 -41 -10 -63 -21z"/>
<path d="M4169 9871 l-24 -19 27 5 c32 6 60 33 35 33 -8 0 -25 -9 -38 -19z"/>
<path d="M4668 9883 c7 -3 16 -2 19 1 4 3 -2 6 -13 5 -11 0 -14 -3 -6 -6z"/>
<path d="M1620 9806 c0 -2 7 -6 15 -10 8 -3 15 -1 15 4 0 6 -7 10 -15 10 -8 0
-15 -2 -15 -4z"/>
<path d="M3935 9792 c-45 -23 -13 -26 37 -3 35 16 38 19 18 19 -14 0 -38 -7
-55 -16z"/>
<path d="M3855 9762 c-11 -2 -24 -9 -30 -14 -7 -7 -1 -8 20 -3 44 10 53 26 10
17z"/>
<path d="M3510 9640 c0 -5 11 -10 25 -10 14 0 25 5 25 10 0 6 -11 10 -25 10
-14 0 -25 -4 -25 -10z"/>
<path d="M4989 1773 c-5 -15 -16 -23 -31 -22 -22 0 -22 1 -3 9 28 12 7 12 -37
0 -20 -6 -39 -17 -42 -25 -3 -9 -17 -20 -31 -25 -15 -6 -23 -14 -20 -20 3 -5
0 -10 -9 -10 -8 0 -16 5 -18 12 -9 25 -26 -4 -38 -64 -7 -40 -19 -67 -31 -76
-11 -7 -25 -25 -33 -40 -19 -37 -20 -137 -1 -165 15 -24 36 -167 24 -167 -8 0
3 -50 20 -92 6 -16 15 -28 21 -28 5 0 10 -4 10 -10 0 -5 25 -36 56 -69 52 -55
60 -60 111 -67 46 -5 62 -3 95 15 22 11 56 21 76 21 19 0 43 6 51 14 9 8 51
32 93 54 43 22 88 53 102 68 29 35 91 97 181 183 37 36 81 88 98 115 17 28 39
60 49 70 10 11 18 24 18 29 0 5 22 31 50 59 27 27 47 54 44 59 -3 5 2 9 10 9
9 0 16 4 16 8 0 9 22 37 60 78 25 27 14 37 -60 52 -112 23 -601 55 -754 50
-60 -3 -69 -6 -77 -25z"/>
<path d="M6880 1729 c0 -5 -5 -7 -11 -3 -6 3 -15 0 -20 -7 -14 -23 -22 -118
-11 -132 5 -6 12 -23 14 -37 2 -14 9 -24 16 -22 6 1 12 -5 12 -13 0 -21 16
-19 32 3 7 11 23 24 34 30 22 12 38 58 23 68 -5 3 -9 13 -9 23 0 10 -7 24 -15
31 -8 7 -15 23 -15 35 0 13 -7 26 -16 29 -23 9 -34 7 -34 -5z"/>
<path d="M7386 1461 c-6 -10 22 -59 66 -115 13 -17 28 -46 33 -65 8 -26 16
-36 30 -36 32 0 33 65 1 112 -14 21 -26 43 -26 49 0 30 -90 78 -104 55z"/>
<path d="M7874 1086 c-8 -22 -1 -59 14 -64 8 -2 12 8 12 32 0 37 -16 57 -26
32z"/>
<path d="M6388 1002 c-42 -25 -35 -42 16 -42 50 0 71 25 40 47 -21 16 -22 16
-56 -5z"/>
<path d="M30 411 c0 -7 11 -33 24 -59 13 -26 31 -73 41 -104 22 -71 40 -77 31
-12 -3 26 -6 57 -6 69 0 13 -16 43 -36 67 -38 45 -54 57 -54 39z"/>
<path d="M7143 308 c5 -15 -40 -48 -66 -48 -10 0 -44 -22 -75 -49 -31 -27 -71
-52 -88 -55 -18 -4 -40 -16 -50 -27 -9 -10 -23 -19 -31 -19 -7 0 -13 -6 -13
-14 0 -13 -26 -26 -77 -41 -13 -3 -23 -11 -23 -17 0 -5 -7 -7 -16 -4 -19 7
-57 -11 -49 -25 4 -5 90 -9 206 -9 160 0 199 3 199 13 0 8 9 22 20 32 11 10
20 22 20 27 0 9 67 107 84 123 13 13 36 52 36 62 0 5 -11 20 -24 36 -23 27
-61 38 -53 15z"/>
<path d="M10265 50 c-3 -6 -4 -14 0 -20 8 -13 35 -1 35 16 0 16 -26 19 -35 4z"/>
<path d="M4456 33 c-4 -5 -31 -13 -59 -19 -51 -11 -49 -12 58 -13 74 0 105 2
95 9 -8 5 -22 7 -31 5 -9 -3 -22 1 -29 10 -14 17 -23 19 -34 8z"/>
<path d="M10195 15 l-30 -13 48 -1 c35 -1 47 3 47 14 0 18 -25 19 -65 0z"/>
</g>
</svg>
