<?xml version="1.0" encoding="UTF-8"?>
<svg version="1.1" xmlns="http://www.w3.org/2000/svg" width="512" height="512">
<path d="M0 0 C0.96988861 0.00182281 1.93977722 0.00364563 2.9390564 0.00552368 C17.29056055 0.05091691 31.25442918 0.5562653 45.375 3.3125 C46.72053955 3.55395752 46.72053955 3.55395752 48.09326172 3.80029297 C91.69438156 11.68987506 132.84026903 31.3774291 166.375 60.3125 C167.13167969 60.95832031 167.88835937 61.60414062 168.66796875 62.26953125 C180.8161432 72.91190183 192.64131337 84.40083733 202.375 97.3125 C202.78878906 97.84987793 203.20257813 98.38725586 203.62890625 98.94091797 C211.31576589 108.9388779 218.06113145 119.40061847 224.375 130.3125 C224.76929199 130.98974121 225.16358398 131.66698242 225.56982422 132.36474609 C238.9915837 155.69971982 247.25020472 181.48364115 252.6875 207.75 C252.83493652 208.45680908 252.98237305 209.16361816 253.13427734 209.8918457 C256.06774027 225.15238701 256.75326888 240.43996059 256.6875 255.9375 C256.68534485 256.85692383 256.6831897 257.77634766 256.68096924 258.72363281 C256.62706415 273.09666193 256.11651263 287.16402869 253.375 301.3125 C253.07698486 302.85550781 253.07698486 302.85550781 252.77294922 304.4296875 C240.7821482 364.35674699 208.50126317 420.97923554 159.375 458.3125 C158.83472168 458.72918945 158.29444336 459.14587891 157.73779297 459.57519531 C147.7427884 467.2584873 137.28290964 474.00092968 126.375 480.3125 C125.69775879 480.70679199 125.02051758 481.10108398 124.32275391 481.50732422 C86.60373904 503.20246522 43.39744326 512.79899721 0.1875 512.625 C-1.22757339 512.62226578 -1.22757339 512.62226578 -2.67123413 512.61947632 C-16.84231531 512.57344343 -30.68999852 512.10598421 -44.625 509.3125 C-45.52831055 509.13557617 -46.43162109 508.95865234 -47.36230469 508.77636719 C-53.83369999 507.47760189 -60.2366725 505.97035815 -66.625 504.3125 C-67.45563965 504.09754883 -68.2862793 503.88259766 -69.14208984 503.66113281 C-109.61050039 492.92838092 -146.54181601 471.28690378 -176.625 442.3125 C-177.28435547 441.68037598 -177.94371094 441.04825195 -178.62304688 440.39697266 C-188.11382 431.25009947 -196.83820776 421.94804306 -204.625 411.3125 C-205.44744754 410.21969886 -206.27036382 409.12725034 -207.09375 408.03515625 C-229.29450597 378.1912292 -244.13797571 343.68546844 -251.625 307.3125 C-251.83527832 306.31138184 -252.04555664 305.31026367 -252.26220703 304.27880859 C-258.61424225 272.55886711 -258.31108653 236.93875059 -251.625 205.3125 C-251.40537598 204.27061523 -251.18575195 203.22873047 -250.95947266 202.15527344 C-241.04735766 156.7124702 -219.22440838 113.4525054 -186.46972656 80.18798828 C-184.52498022 78.21081235 -182.60253414 76.21330796 -180.6796875 74.21484375 C-172.51124101 65.80260723 -164.07869229 58.24179512 -154.625 51.3125 C-154.05571777 50.88775391 -153.48643555 50.46300781 -152.89990234 50.02539062 C-144.15908179 43.50981985 -135.11413672 37.67661453 -125.625 32.3125 C-124.91778809 31.9103125 -124.21057617 31.508125 -123.48193359 31.09375 C-97.33439144 16.37245949 -68.31333558 6.67328667 -38.625 2.3125 C-37.42037109 2.13517334 -36.21574219 1.95784668 -34.97460938 1.77514648 C-23.31732646 0.176175 -11.75313902 -0.0459053 0 0 Z " fill="#EA8BB8" transform="translate(255.625,-0.3125)"/>
<path d="M0 0 C9.30428888 2.18924444 16.59437302 7.5967979 21.9140625 15.53125 C30.66100507 32.17408127 29.10459704 48.40087454 23.71289062 65.90087891 C22.68326391 69.29122067 21.71199875 72.69766422 20.7421875 76.10546875 C20.39575195 77.32194092 20.04931641 78.53841309 19.69238281 79.79174805 C19.43553711 80.69578369 19.17869141 81.59981934 18.9140625 82.53125 C20.19643799 82.47066406 21.47881348 82.41007812 22.80004883 82.34765625 C65.57930218 80.34506439 65.57930218 80.34506439 81.8515625 80.15625 C82.88837158 80.13046875 83.92518066 80.1046875 84.9934082 80.078125 C92.18253594 80.0586604 97.32202437 81.56728927 102.90234375 86.171875 C108.93818121 93.50746507 110.49436523 99.87645242 110.2734375 109.3984375 C109.59091565 115.34824752 107.21479864 119.46465136 102.9140625 123.53125 C104.62174329 127.08163751 106.65604434 130.32523379 108.79296875 133.62890625 C111.22743469 137.75986413 111.47947335 141.86661049 110.9140625 146.53125 C109.17524544 152.74941102 106.91490469 157.29976814 101.9140625 161.53125 C101.3159375 162.129375 100.7178125 162.7275 100.1015625 163.34375 C99.7096875 163.735625 99.3178125 164.1275 98.9140625 164.53125 C100.0896875 165.8925 100.0896875 165.8925 101.2890625 167.28125 C105.58064884 172.25045524 106.35607183 176.1385374 106.234375 182.640625 C105.6076739 188.2962203 103.39244666 192.74849263 99.7890625 197.09375 C97.9140625 198.53125 97.9140625 198.53125 95.9140625 198.53125 C96.33558594 199.20671875 96.75710938 199.8821875 97.19140625 200.578125 C98.01318359 201.91617188 98.01318359 201.91617188 98.8515625 203.28125 C99.39683594 204.16296875 99.94210937 205.0446875 100.50390625 205.953125 C103.32599462 211.11262174 103.75168732 216.21276184 102.30078125 221.9609375 C99.5217591 230.01642901 94.74256522 234.52961352 87.37109375 238.55859375 C82.25240737 241.04837988 76.90309051 242.10414367 71.3515625 243.21875 C70.34931641 243.43080078 69.34707031 243.64285156 68.31445312 243.86132812 C59.61457193 245.6769057 51.35404721 246.68303628 42.46875 246.6640625 C41.46304962 246.66501923 40.45734924 246.66597595 39.4211731 246.66696167 C37.29136086 246.66764055 35.16154652 246.66580666 33.03173828 246.66162109 C29.84793142 246.65634751 26.66427079 246.66153483 23.48046875 246.66796875 C-14.84485448 246.68568381 -14.84485448 246.68568381 -26.4609375 243.34375 C-27.2741748 243.12525391 -28.08741211 242.90675781 -28.92529297 242.68164062 C-40.16433517 239.55049683 -50.78850533 235.00706099 -61.0859375 229.53125 C-61.1684375 230.541875 -61.2509375 231.5525 -61.3359375 232.59375 C-62.37113352 239.53236116 -66.02690852 243.88265237 -71.20703125 248.26953125 C-76.5688786 251.8701065 -81.62483799 251.86540032 -87.8828125 251.90234375 C-88.83101868 251.91137222 -89.77922485 251.9204007 -90.75616455 251.92970276 C-92.75993708 251.94418541 -94.76375668 251.95308705 -96.76757812 251.95678711 C-99.81202276 251.96865676 -102.8544218 252.01783936 -105.8984375 252.06835938 C-107.85155268 252.07782777 -109.80468023 252.08506081 -111.7578125 252.08984375 C-112.65812195 252.10937607 -113.5584314 252.12890839 -114.48602295 252.14903259 C-121.9898193 252.09625362 -127.75280155 249.71706502 -133.20703125 244.50390625 C-133.64144531 243.87355469 -134.07585937 243.24320313 -134.5234375 242.59375 C-135.20212891 241.65208984 -135.20212891 241.65208984 -135.89453125 240.69140625 C-139.36058604 234.40705117 -139.38263016 228.54137529 -139.37646484 221.54394531 C-139.38318207 220.44722504 -139.38989929 219.35050476 -139.39682007 218.22055054 C-139.41579495 214.6001124 -139.4197242 210.97985975 -139.421875 207.359375 C-139.42830381 204.83599777 -139.43503223 202.31262128 -139.44204712 199.78924561 C-139.45401901 194.50010144 -139.45781389 189.21102607 -139.45654297 183.921875 C-139.45534312 177.82903313 -139.47641904 171.73654639 -139.5080303 165.6437943 C-139.53745329 159.7608852 -139.5445158 153.87811529 -139.54332352 147.99514008 C-139.54567737 145.50257672 -139.55448865 143.01001048 -139.56998825 140.5174942 C-139.58967972 137.02341131 -139.58379661 133.53023161 -139.57177734 130.03613281 C-139.58301636 129.01552765 -139.59425537 127.99492249 -139.60583496 126.94338989 C-139.53886765 119.24568596 -138.01914122 112.32099851 -133.2265625 106.12890625 C-132.60265625 105.62230469 -131.97875 105.11570312 -131.3359375 104.59375 C-130.72234375 104.06910156 -130.10875 103.54445313 -129.4765625 103.00390625 C-123.23893427 99.16144572 -117.51664331 98.06989642 -110.34375 98.09765625 C-109.13112991 98.08979347 -109.13112991 98.08979347 -107.89401245 98.08177185 C-106.19481548 98.07538913 -104.49557409 98.07663965 -102.79638672 98.08520508 C-100.22411795 98.09370644 -97.65408098 98.06491737 -95.08203125 98.03320312 C-84.16186387 97.98693123 -74.38700899 98.489587 -66.0859375 106.53125 C-65.0959375 108.01625 -65.0959375 108.01625 -64.0859375 109.53125 C-40.54676243 79.51711559 -25.91472589 42.21210148 -20.67578125 4.59765625 C-18.26684814 -3.84158623 -6.75631152 -1.02627517 0 0 Z M-12.0859375 8.53125 C-12.41464844 10.33142578 -12.41464844 10.33142578 -12.75 12.16796875 C-19.07949814 45.82970104 -30.391589 79.49439074 -51.44657898 106.98431396 C-61.04692831 119.85709474 -62.89746092 129.6845482 -62.35546875 145.484375 C-62.33114226 147.6080759 -62.31267514 149.73185109 -62.29972839 151.85565186 C-62.25071163 157.37474492 -62.12359404 162.88920086 -61.97857666 168.40649414 C-61.84421489 174.06462905 -61.7859282 179.72353317 -61.72070312 185.3828125 C-61.58238422 196.43429998 -61.36130893 207.48238562 -61.0859375 218.53125 C-58.84363645 219.82628563 -56.59979453 221.11851316 -54.35498047 222.40917969 C-53.72331467 222.77437714 -53.09164886 223.13957458 -52.44084167 223.51583862 C-45.5925264 227.44726337 -38.58186318 230.12080262 -31.0859375 232.53125 C-29.20648438 233.13646484 -29.20648438 233.13646484 -27.2890625 233.75390625 C-15.93680299 236.98582503 -4.8372079 237.3881781 6.9140625 237.53125 C8.53727656 237.55701463 10.1604859 237.5830775 11.78369141 237.609375 C16.4212502 237.68057958 21.05864016 237.72682479 25.69662476 237.75939941 C27.55882689 237.77371466 29.42100197 237.79235308 31.28311157 237.8157959 C49.98454586 238.02982387 75.71122004 238.23926703 90.9140625 225.53125 C93.87667675 222.10572727 94.4493537 219.06181374 94.26953125 214.5234375 C93.51346649 210.28615147 90.99467467 207.48087887 87.8515625 204.71875 C82.98401275 201.73541305 77.5112198 202.12986023 71.96875 201.8125 C68.9140625 201.53125 68.9140625 201.53125 67.9140625 200.53125 C67.7890625 198.03125 67.7890625 198.03125 67.9140625 195.53125 C70.2176077 193.2277048 76.74508495 194.17548125 80.03710938 194.1015625 C85.03325011 193.90547521 88.56822183 193.25410696 92.9140625 190.53125 C95.81916848 187.32561581 96.7727322 184.58113223 97.3515625 180.28125 C96.7700852 175.29715888 94.54124652 172.85773483 90.9140625 169.53125 C87.41607074 167.78225412 83.19758752 168.16209068 79.32421875 168.01367188 C74.12806719 167.74525469 74.12806719 167.74525469 71.9140625 165.53125 C72.46961806 160.97569444 72.46961806 160.97569444 73.9140625 159.53125 C75.33944759 159.28320322 76.77420195 159.08838235 78.2109375 158.91796875 C79.0875 158.80388672 79.9640625 158.68980469 80.8671875 158.57226562 C82.71495851 158.33871356 84.56394626 158.11457312 86.4140625 157.90039062 C91.63757914 157.20163072 95.18276614 156.56369429 98.9140625 152.53125 C101.93453739 148.03267038 101.65953188 142.7344757 100.9140625 137.53125 C98.96056277 133.58533621 95.95736228 131.17951235 91.9140625 129.53125 C89.51823284 129.18524035 89.51823284 129.18524035 86.96484375 129.15234375 C86.03478516 129.11818359 85.10472656 129.08402344 84.14648438 129.04882812 C83.18291016 129.02240234 82.21933594 128.99597656 81.2265625 128.96875 C79.30585661 128.90908498 77.38526705 128.84550074 75.46484375 128.77734375 C74.19120972 128.74145142 74.19120972 128.74145142 72.8918457 128.70483398 C70.9140625 128.53125 70.9140625 128.53125 69.9140625 127.53125 C69.7890625 125.03125 69.7890625 125.03125 69.9140625 122.53125 C71.45751936 120.98779314 73.02879443 121.26224359 75.17578125 121.1015625 C76.04783203 121.02808594 76.91988281 120.95460938 77.81835938 120.87890625 C79.65381056 120.73207016 81.48975906 120.5913066 83.32617188 120.45703125 C89.67917594 119.90702796 94.38758697 118.85287616 99.2265625 114.40625 C101.56626392 110.42009202 102.33571656 107.14763495 101.9140625 102.53125 C100.37504692 97.65299419 98.75521506 93.68093054 94.3203125 90.91162109 C90.32378654 89.2920427 86.93083743 89.16138613 82.69921875 89.28125 C81.47622826 89.29877319 81.47622826 89.29877319 80.22853088 89.31665039 C77.45601346 89.36580092 74.68565049 89.44441477 71.9140625 89.53125 C70.90075867 89.5626709 69.88745483 89.5940918 68.84344482 89.62646484 C61.01086985 89.88201672 53.18133559 90.20213337 45.3515625 90.53125 C41.87303057 90.6754529 38.39446095 90.81849802 34.91578674 90.95922852 C32.77306904 91.04609718 30.63043171 91.13498261 28.48789978 91.22631836 C14.4073465 91.80222018 14.4073465 91.80222018 9.9140625 91.53125 C8.9140625 90.53125 8.9140625 90.53125 8.71484375 87.42089844 C8.92532186 83.31141661 9.77250358 80.1828388 11.1015625 76.296875 C11.56006775 74.91338316 12.01687507 73.5293277 12.47216797 72.14477539 C12.70917419 71.4314505 12.94618042 70.71812561 13.19036865 69.98318481 C20.88339503 46.93048009 20.88339503 46.93048009 16.30078125 23.671875 C11.5795656 16.38391395 6.51150171 10.77843175 -2.0859375 8.53125 C-4.72580302 8.35900696 -4.72580302 8.35900696 -7.375 8.44140625 C-8.2613916 8.45437744 -9.1477832 8.46734863 -10.06103516 8.48071289 C-10.72925293 8.49739014 -11.3974707 8.51406738 -12.0859375 8.53125 Z " fill="#EA0E96" transform="translate(226.0859375,183.46875)"/>
<path d="M0 0 C0.91517395 -0.00807175 1.8303479 -0.01614349 2.77325439 -0.02445984 C4.7134003 -0.03830504 6.65357061 -0.04902524 8.59375 -0.05688477 C11.55255748 -0.07407025 14.51023967 -0.11794882 17.46875 -0.16210938 C19.35415845 -0.17223876 21.23957641 -0.1807541 23.125 -0.1875 C24.00645691 -0.20500809 24.88791382 -0.22251617 25.79608154 -0.24055481 C31.28701536 -0.22129245 34.55555902 0.45432029 38.828125 4.23828125 C42.85518314 9.04681875 42.25776094 14.31185578 42.23217773 20.26733398 C42.23904099 21.38008698 42.24590424 22.49283997 42.25297546 23.63931274 C42.27127404 27.31696336 42.26740143 30.99418863 42.26171875 34.671875 C42.26627905 37.22868489 42.27158416 39.78549355 42.27760315 42.34230042 C42.28654029 47.70131993 42.284338 53.0601845 42.27416992 58.41918945 C42.26269059 64.60583147 42.276763 70.79203988 42.3035664 76.97862476 C42.32842317 82.94003653 42.33089661 88.90131392 42.32444954 94.86277962 C42.32429612 97.39492578 42.33035745 99.92708021 42.34274101 102.45919609 C42.35761641 105.99973691 42.34699795 109.53932306 42.32983398 113.07983398 C42.33950195 114.12574203 42.34916992 115.17165009 42.35913086 116.24925232 C42.28570785 123.48132437 40.96042929 126.60480827 36.265625 132.05078125 C32.51837618 135.14633462 27.58464622 134.43624188 22.99609375 134.4765625 C21.69204338 134.48867012 21.69204338 134.48867012 20.36164856 134.50102234 C18.52163683 134.51484926 16.68159959 134.52557764 14.84155273 134.53344727 C12.03644881 134.55065352 9.23252584 134.59455045 6.42773438 134.63867188 C4.63802948 134.64879996 2.84831459 134.6573157 1.05859375 134.6640625 C0.22402145 134.68157059 -0.61055084 134.69907867 -1.47041321 134.71711731 C-6.8387358 134.69725451 -9.98269143 133.90641234 -14.171875 130.23828125 C-18.23292707 125.41476867 -17.61530518 120.02594338 -17.60766602 114.04150391 C-17.61774185 112.91085007 -17.62781769 111.78019623 -17.63819885 110.61528015 C-17.66669634 106.87753412 -17.67255637 103.14019166 -17.67578125 99.40234375 C-17.68542083 96.80308872 -17.69551319 94.20383533 -17.70603943 91.60458374 C-17.72400517 86.15561456 -17.72968848 80.70680542 -17.7277832 75.2578125 C-17.72598141 68.96992065 -17.75763129 62.68280139 -17.80501419 56.395105 C-17.84905066 50.33433254 -17.85974527 44.2739779 -17.85795403 38.21302414 C-17.86149325 35.63981342 -17.87475791 33.06659693 -17.89795113 30.49348831 C-17.9273676 26.89295704 -17.91871456 23.29441134 -17.90063477 19.69384766 C-17.91749329 18.6328334 -17.93435181 17.57181915 -17.95172119 16.47865295 C-17.87324424 10.3241317 -17.0293893 6.90303873 -12.65406704 2.46445274 C-8.90745133 -0.6350062 -4.6248434 0.0384051 0 0 Z " fill="#EA8BB8" transform="translate(114.171875,291.76171875)"/>
<path d="M0 0 C2.89707652 0.2824723 4.51575154 0.96319318 7.03588867 2.39111328 C7.87853271 2.86202393 8.72117676 3.33293457 9.58935547 3.81811523 C10.49596924 4.33462646 11.40258301 4.8511377 12.33666992 5.38330078 C13.29420166 5.90432373 14.2517334 6.42534668 15.23828125 6.9621582 C20.70236911 9.94884137 25.99035683 13.09476136 31.21166992 16.48876953 C41.49805004 23.52114181 41.49805004 23.52114181 53.29418945 26.16259766 C58.5433266 24.79571106 62.79245644 21.93937898 67.20092773 18.86621094 C71.64481814 15.94763672 76.48657979 13.79991678 81.27416992 11.50830078 C87.20236173 8.57336861 93.01843146 5.54549557 98.69726562 2.14916992 C101.57542844 0.8355469 103.71683828 1.2808569 106.64916992 2.25830078 C108.02083495 7.77058908 107.16420654 12.17252072 106.03198242 17.60986328 C105.85537079 18.5051474 105.67875916 19.40043152 105.49679565 20.32284546 C104.93245319 23.17840279 104.35448091 26.03094925 103.77416992 28.88330078 C103.20232334 31.71444979 102.63374966 34.5461237 102.07296753 37.37948608 C101.72466877 39.13736627 101.3701174 40.89402508 101.00784302 42.64907837 C100.50435133 45.1788936 100.07536865 47.71441832 99.64916992 50.25830078 C99.43948074 51.23781708 99.22979156 52.21733337 99.01374817 53.22653198 C98.28633665 57.6147971 97.82052298 60.80822162 100.08105469 64.76400757 C102.27651968 67.29051122 104.59481822 69.51161326 107.08276367 71.75048828 C107.94982437 72.58492462 108.81688507 73.41936096 109.71022034 74.27908325 C112.4732269 76.9299927 115.27588853 79.53317752 118.08666992 82.13330078 C120.88726363 84.76061481 123.67786538 87.3969725 126.45240784 90.05178833 C128.1775142 91.69874688 129.91879593 93.32896236 131.67735291 94.94015503 C132.46138992 95.68177887 133.24542694 96.42340271 134.05322266 97.1875 C134.74906967 97.83081268 135.44491669 98.47412537 136.16184998 99.13693237 C138.17259626 102.00486517 138.14086731 103.8344912 137.64916992 107.25830078 C134.49574696 109.36058276 133.07363513 109.64860319 129.39916992 110.08032227 C128.32795898 110.21063339 127.25674805 110.34094452 126.15307617 110.47520447 C124.41864258 110.67527855 124.41864258 110.67527855 122.64916992 110.87939453 C120.21163968 111.17797586 117.77414061 111.47681178 115.33666992 111.77587891 C111.48562242 112.23880199 107.63414492 112.69756982 103.78198242 113.15112305 C100.06961804 113.59120714 96.35942566 114.04692284 92.64916992 114.50439453 C90.91473633 114.70143227 90.91473633 114.70143227 89.14526367 114.90245056 C88.07405273 115.03591385 87.0028418 115.16937714 85.89916992 115.30688477 C84.95557617 115.41854477 84.01198242 115.53020477 83.03979492 115.64524841 C80.30515461 116.34652014 79.36571153 117.05325127 77.64916992 119.25830078 C76.2520598 121.82323401 74.93834525 124.37951939 73.66479492 127.00439453 C73.28611267 127.77074722 72.90743042 128.53709991 72.51727295 129.32667542 C71.30547182 131.78025996 70.10162115 134.23762211 68.89916992 136.69580078 C60.12607247 154.59829087 60.12607247 154.59829087 55.88354492 162.35595703 C55.37533203 163.29060791 54.86711914 164.22525879 54.34350586 165.18823242 C52.64916992 167.25830078 52.64916992 167.25830078 49.94702148 168.06469727 C49.18873047 168.12858643 48.43043945 168.19247559 47.64916992 168.25830078 C44.75797183 164.85099762 42.6431572 161.56570459 40.73120117 157.53173828 C40.20292725 156.42564209 39.67465332 155.3195459 39.13037109 154.17993164 C38.57969971 153.00954346 38.02902832 151.83915527 37.46166992 150.63330078 C36.88708884 149.42284262 36.31197064 148.21263929 35.73632812 147.00268555 C34.58309929 144.57630374 33.43357847 142.14821744 32.28686523 139.71875 C30.80217145 136.58159291 29.30386211 133.45155434 27.79760742 130.32470703 C26.97713815 128.61514685 26.15681456 126.90551673 25.33666992 125.19580078 C24.95808838 124.41188965 24.57950684 123.62797852 24.18945312 122.8203125 C21.64916992 117.48650163 21.64916992 117.48650163 21.64916992 115.25830078 C20.55862305 115.18482422 20.55862305 115.18482422 19.44604492 115.10986328 C18.44057617 115.03509766 17.43510742 114.96033203 16.39916992 114.88330078 C15.42463867 114.81369141 14.45010742 114.74408203 13.44604492 114.67236328 C9.30150589 114.2203868 5.23131293 113.53765539 1.12329102 112.83349609 C-2.71681693 112.19770591 -6.5651452 111.63165345 -10.41723633 111.07470703 C-12.53270874 110.76284967 -14.64796998 110.44959385 -16.76318359 110.13598633 C-18.21213768 109.92358713 -19.66170552 109.71533843 -21.11181641 109.51098633 C-23.23632484 109.21039982 -25.35798282 108.89408722 -27.47973633 108.57470703 C-29.35254272 108.30315796 -29.35254272 108.30315796 -31.26318359 108.02612305 C-34.35176509 107.25806827 -35.54116028 106.81926744 -37.35083008 104.25830078 C-37.90161133 101.92236328 -37.90161133 101.92236328 -37.35083008 99.25830078 C-35.4607367 97.16086807 -33.67662245 95.4396399 -31.53833008 93.63330078 C-30.3385316 92.57684033 -29.14064794 91.51820173 -27.94458008 90.45751953 C-27.34000977 89.92562012 -26.73543945 89.3937207 -26.11254883 88.84570312 C-23.48245574 86.4758493 -21.01914518 83.97191167 -18.53833008 81.44580078 C-15.4976795 78.36989628 -12.44269513 75.39079952 -9.16333008 72.57080078 C-8.54071289 72.02939453 -7.9180957 71.48798828 -7.27661133 70.93017578 C-5.88613468 69.7230277 -4.4865142 68.52638441 -3.08129883 67.33642578 C-2.34524414 66.67126953 -1.60918945 66.00611328 -0.85083008 65.32080078 C-0.18051758 64.73427734 0.48979492 64.14775391 1.18041992 63.54345703 C5.55023233 56.74467974 1.55604626 45.62112421 0.27416992 38.07080078 C0.04960476 36.72389661 -0.17435738 35.37689175 -0.39770508 34.02978516 C-0.83663581 31.38367078 -1.27686824 28.73778819 -1.71801758 26.09204102 C-4.80630564 7.38240082 -4.80630564 7.38240082 -4.35083008 2.25830078 C-2.35083008 0.25830078 -2.35083008 0.25830078 0 0 Z M5.64916992 13.25830078 C6.48389678 18.7211709 7.3201196 24.18380917 8.15771484 29.64624023 C8.44230368 31.50359947 8.72648737 33.36102082 9.01025391 35.21850586 C9.41876822 37.89209256 9.82875055 40.56545069 10.23901367 43.23876953 C10.36509506 44.0660405 10.49117645 44.89331146 10.62107849 45.74565125 C11.21473981 49.60501006 11.8671841 53.43182985 12.64916992 57.25830078 C13.40128044 63.11401836 13.40128044 63.11401836 11.55541992 65.92236328 C9.99668789 67.63862675 8.36640109 69.20076836 6.64916992 70.75830078 C5.75004883 71.61391602 5.75004883 71.61391602 4.83276367 72.48681641 C1.25765604 75.86502286 -2.41917984 79.12095776 -6.17114258 82.30126953 C-11.45455061 87.04497459 -16.3635284 92.2074216 -21.35083008 97.25830078 C-22.34083008 98.24830078 -22.34083008 98.24830078 -23.35083008 99.25830078 C-20.72132301 100.57305432 -18.33422553 100.74475693 -15.41333008 101.13330078 C-9.58654417 101.93247101 -3.78156453 102.81913786 2.02416992 103.75830078 C10.54371199 105.12732805 19.07967441 106.25360131 27.64916992 107.25830078 C27.92083984 107.95560303 28.19250977 108.65290527 28.47241211 109.37133789 C30.48338874 114.30490607 32.7785741 119.10918442 35.0246582 123.93920898 C35.88484128 125.7899714 36.74175778 127.64222021 37.59838867 129.49462891 C41.14870892 137.15130206 44.82796386 144.73302371 48.64916992 152.25830078 C49.30916992 152.25830078 49.96916992 152.25830078 50.64916992 152.25830078 C51.16825928 151.24517822 51.68734863 150.23205566 52.22216797 149.18823242 C54.16822358 145.391057 56.11629402 141.59491819 58.06494141 137.79907227 C58.90434949 136.16328201 59.74322772 134.52721973 60.58154297 132.89086914 C60.98735596 132.0988208 61.39316895 131.30677246 61.8112793 130.49072266 C62.21094406 129.70933426 62.61060883 128.92794586 63.02238464 128.12287903 C63.82101136 126.57389285 64.62821312 125.02929693 65.44404602 123.48930359 C67.06625529 120.42151074 68.56347005 117.49800195 69.73388672 114.22436523 C70.75429117 111.51289503 71.41339348 110.11721836 73.64916992 108.25830078 C79.38279901 106.45535018 85.12377649 105.8862322 91.08666992 105.32080078 C92.68020405 105.14168826 94.27331593 104.95877614 95.8659668 104.77197266 C98.97542818 104.41151985 102.08603002 104.071337 105.19946289 103.74707031 C111.37403094 103.09009426 117.51012617 102.188082 123.64916992 101.25830078 C119.60563642 96.35247737 115.31389803 91.89808232 110.68432617 87.54736328 C109.37634731 86.29094245 108.06974551 85.03308674 106.7644043 83.77392578 C104.73298981 81.81667209 102.69577392 79.86845281 100.63427734 77.94287109 C98.62729795 76.06330762 96.65421719 74.15316705 94.68432617 72.23486328 C94.06364761 71.66893463 93.44296906 71.10300598 92.80348206 70.51992798 C88.76226221 66.50738418 88.76226221 66.50738418 88.45407104 63.10346985 C88.69238712 60.76205599 89.12117692 58.55087383 89.64916992 56.25830078 C89.87122949 54.92064603 90.08759348 53.5820304 90.29760742 52.24243164 C90.53694044 50.90215641 90.77920736 49.56240229 91.02416992 48.22314453 C91.15355957 47.50018692 91.28294922 46.77722931 91.41625977 46.03236389 C91.82444287 43.75299792 92.23643041 41.47434574 92.64916992 39.19580078 C93.06160102 36.91363364 93.47310185 34.63131458 93.88208008 32.348526 C94.13488465 30.93786349 94.38962191 29.5275453 94.64672852 28.11766052 C95.47368258 23.50899563 96.10026035 18.90623143 96.64916992 14.25830078 C93.95841593 15.50163635 91.27119715 16.75161773 88.58666992 18.00830078 C87.32935059 18.59599243 87.32935059 18.59599243 86.04663086 19.19555664 C81.13268836 21.52072771 76.29898743 23.94976868 71.51245117 26.52783203 C70.49481689 27.07407227 69.47718262 27.6203125 68.42871094 28.18310547 C66.43932925 29.25851625 64.45645261 30.34606618 62.48095703 31.44677734 C53.35923667 36.36948362 53.35923667 36.36948362 47.64916992 35.25830078 C44.05510907 33.72434314 40.71508272 31.84071976 37.33666992 29.88330078 C36.37986328 29.34543945 35.42305664 28.80757812 34.43725586 28.25341797 C31.50066727 26.60079657 28.57491981 24.93001663 25.64916992 23.25830078 C23.02844437 21.77898673 20.40461251 20.3055497 17.77734375 18.83789062 C16.21808723 17.96614121 14.66180823 17.0890398 13.10888672 16.20605469 C9.59773658 14.02660326 9.59773658 14.02660326 5.64916992 13.25830078 Z " fill="#EA0D96" transform="translate(286.350830078125,76.74169921875)"/>
</svg>
